Coordinates
version=1
nRows=22
nColumns=33
inDegrees=yes

Units are S.I. units (second, meters, Newtons, ...)
Angles are in degrees.

endheader
time	ground_thorax_rot_x	ground_thorax_rot_y	ground_thorax_rot_z	ground_thorax_tx	ground_thorax_ty	ground_thorax_tz	clav_prot_r	clav_elev_r	scapula_abduction_r	scapula_elevation_r	scapula_upward_rot_r	scapula_winging_r	shoulder_elv_r	plane_of_elev_r	axial_rot_r	elbow_flexion_r	pro_sup_r	wrist_flex_r	wrist_dev_r	clav_prot_l	clav_elev_l	scapula_abduction_l	scapula_elevation_l	scapula_upward_rot_l	scapula_winging_l	shoulder_elv_l	plane_of_elev_l	axial_rot_l	elbow_flexion_l	pro_sup_l	wrist_flex_l	wrist_dev_l	
6.2300	39.502453	11.314859	15.532336	-256.770015	837.519611	9.135271	15.358023	38.056492	38.469202	45.000000	-45.022654	3509.546358	-3531.296021	26.990400	-180.000000	1440.297914	-159.142770	21.541872	9.632069	9.945362	-45.000000	-36.348189	45.000000	-45.000000	-2418.033030	-644.621678	20.902664	-34.238725	1809.526761	36.771551	4.987254	-23.731788	
6.2400	39.464277	11.382492	15.637371	-256.845319	836.682906	9.095893	15.306102	38.025557	38.339496	45.000000	-44.969115	3509.709436	-3531.317265	26.932113	-180.000000	1440.411635	-159.237378	21.557031	9.673491	9.914502	-45.000000	-36.312129	45.000000	-45.000000	-2418.047433	-644.711119	20.810617	-34.441466	1809.596976	36.105857	5.108559	-23.647625	
6.2500	39.418213	11.449883	15.761387	-256.881063	835.863785	9.062735	15.255654	38.026820	38.226148	45.000000	-44.956693	3509.819012	-3531.351147	26.905358	-180.000000	1440.502166	-159.356066	21.581202	9.741050	9.907309	-45.000000	-36.244781	45.000000	-45.000000	-2418.067867	-644.797244	20.737180	-34.617417	1809.620641	35.431075	5.222170	-23.537809	
6.2600	39.366036	11.510288	15.889038	-256.817707	835.069686	9.042195	15.233101	38.002023	38.127871	45.000000	-44.948531	3509.923610	-3531.385376	26.874109	-180.000000	1440.555233	-159.551375	21.585344	9.776097	9.893247	-45.000000	-36.188002	45.000000	-45.000000	-2418.101043	-644.886229	20.685307	-34.710188	1809.601140	34.776654	5.320293	-23.459122	
6.2700	39.306188	11.557096	16.018956	-256.667652	834.316308	9.034554	15.226901	37.973791	38.046908	45.000000	-44.954235	3510.007322	-3531.422953	26.847812	-179.999999	1440.574626	-159.811297	21.581022	9.805988	9.882289	-45.000000	-36.133632	45.000000	-45.000000	-2418.143770	-644.971926	20.657019	-34.735857	1809.551196	34.128643	5.404434	-23.390802	
6.2800	39.237167	11.585276	16.146103	-256.437343	833.618535	9.039909	15.229911	37.951091	37.986325	45.000000	-44.967372	3510.067906	-3531.467081	26.831464	-179.999999	1440.568744	-160.130685	21.569467	9.839149	9.874673	-45.000000	-36.082858	45.000000	-45.000000	-2418.195480	-645.051741	20.652589	-34.698842	1809.478732	33.488562	5.472540	-23.329264	
6.2900	39.159268	11.590106	16.263509	-256.152885	832.990619	9.055732	15.237240	37.931518	37.939640	45.000000	-44.982752	3510.116282	-3531.510723	26.817557	-179.999999	1440.543676	-160.491739	21.554943	9.882488	9.868235	-45.000000	-36.041543	45.000000	-44.999999	-2418.251713	-645.121251	20.666949	-34.620012	1809.404211	32.859689	5.527570	-23.271330	
6.3000	39.073218	11.570975	16.365424	-255.846827	832.442662	9.077832	15.237954	37.926482	37.906617	45.000000	-44.995568	3510.150265	-3531.555776	26.813706	-179.999998	1440.511103	-160.871239	21.541208	9.945434	9.864420	-45.000000	-36.007246	45.000000	-44.999999	-2418.309310	-645.178819	20.695694	-34.520739	1809.337582	32.250784	5.569536	-23.210333	
6.3100	38.981373	11.529244	16.449294	-255.546967	831.979748	9.101605	15.235288	37.921208	37.877207	45.000000	-45.000000	3510.185555	-3531.593640	26.807213	-179.999996	1440.473093	-161.253201	21.527337	10.020548	9.857902	-45.000000	-35.985237	45.000000	-44.999998	-2418.363600	-645.223409	20.730179	-34.416017	1809.286500	31.679600	5.600326	-23.152677	
6.3200	38.887108	11.469481	16.514478	-255.274661	831.602480	9.122854	15.226381	37.921325	37.852206	45.000000	-45.000000	3510.215249	-3531.624923	26.808410	-179.999993	1440.430556	-161.623880	21.513594	10.106098	9.851805	-45.000000	-35.968432	45.000000	-44.999997	-2418.413989	-645.259228	20.768209	-34.316095	1809.243363	31.162912	5.619403	-23.097245	
6.3300	38.792412	11.399997	16.564956	-255.043073	831.308149	9.138127	15.216519	37.917191	37.827125	45.000000	-45.000000	3510.244416	-3531.645001	26.807781	-179.999988	1440.376236	-161.978344	21.500050	10.196160	9.845398	-45.000000	-35.956650	45.000000	-44.999994	-2418.457689	-645.285047	20.805151	-34.226414	1809.208261	30.711508	5.627358	-23.046365	
6.3400	38.702120	11.325781	16.598922	-254.859520	831.092709	9.145799	15.203683	37.914273	37.805210	45.000000	-45.000000	3510.268359	-3531.656014	26.811586	-179.999978	1440.313776	-162.302935	21.486520	10.284689	9.840342	-45.000000	-35.948588	45.000000	-44.999989	-2418.495640	-645.305297	20.840549	-34.151904	1809.183939	30.338153	5.625147	-23.002022	
6.3500	38.620107	11.245538	16.613407	-254.718783	830.946335	9.143834	15.190589	37.908578	37.780885	45.000000	-45.000000	3510.291364	-3531.656724	26.819043	-179.999961	1440.237128	-162.606582	21.472162	10.373222	9.837894	-45.000000	-35.943873	45.000000	-44.999981	-2418.526745	-645.320181	20.875029	-34.092343	1809.172973	30.036555	5.611146	-22.963788	
6.3600	38.550003	11.162354	16.609917	-254.613244	830.858196	9.133213	15.176136	37.904274	37.757500	45.000000	-45.000000	3510.311456	-3531.648289	26.835460	-179.999930	1440.154179	-162.886236	21.456318	10.456457	9.839070	-45.000000	-35.941641	45.000000	-44.999966	-2418.553868	-645.334108	20.909296	-34.048839	1809.174347	29.803135	5.589511	-22.932445	
6.3700	38.488545	11.088004	16.604960	-254.525741	830.816029	9.112279	15.161603	37.897494	37.738416	45.000000	-45.000000	3510.334647	-3531.634558	26.844575	-179.999875	1440.066292	-163.171950	21.435455	10.536373	9.840969	-45.000000	-35.941767	45.000000	-44.999938	-2418.576491	-645.340012	20.936627	-34.012187	1809.184980	29.612071	5.559130	-22.903759	
6.3800	38.438301	11.022804	16.600439	-254.442259	830.809009	9.083225	15.146754	37.891060	37.724233	45.000000	-45.000000	3510.359548	-3531.616234	26.853014	-179.999776	1439.983766	-163.475942	21.409173	10.610154	9.844245	-45.000000	-35.942636	45.000000	-44.999889	-2418.597851	-645.341813	20.959510	-33.982880	1809.201062	29.449204	5.528623	-22.878876	
6.3900	38.398479	10.967646	16.596718	-254.341165	830.823724	9.046557	15.134314	37.880928	37.709717	45.000000	-45.000000	3510.388063	-3531.597012	26.859582	-179.999598	1439.896171	-163.828239	21.376529	10.683929	9.847896	-45.000000	-35.947347	45.000000	-44.999802	-2418.618637	-645.337471	20.978059	-33.951475	1809.227421	29.284786	5.496758	-22.855321	
6.4000	38.371762	10.921688	16.593284	-254.207126	830.849361	9.007825	15.122350	37.871294	37.695753	45.000000	-44.999999	3510.419471	-3531.573384	26.871070	-179.999281	1439.814610	-164.220932	21.339247	10.753070	9.855082	-45.000000	-35.950487	45.000000	-44.999645	-2418.642885	-645.332647	21.000528	-33.916064	1809.255927	29.112001	5.472125	-22.833931	
6.4100	38.353287	10.893798	16.595806	-254.019410	830.876864	8.969848	15.113195	37.857078	37.679250	45.000000	-44.999999	3510.457489	-3531.548628	26.878563	-179.998712	1439.732881	-164.656826	21.297263	10.817882	9.863108	-45.000000	-35.960046	45.000000	-44.999364	-2418.672963	-645.324522	21.023040	-33.862079	1809.290482	28.916257	5.451606	-22.812578	
6.4200	38.346202	10.876019	16.596524	-253.761851	830.899047	8.939212	15.100268	37.843086	37.661289	45.000000	-44.999998	3510.502747	-3531.515385	26.892095	-179.997692	1439.653057	-165.113706	21.254243	10.873832	9.879079	-45.000000	-35.970434	45.000000	-44.998862	-2418.711135	-645.321628	21.057955	-33.786293	1809.323286	28.702455	5.441540	-22.792380	
6.4300	38.346648	10.873862	16.593078	-253.413063	830.908949	8.919614	15.085562	37.822517	37.620989	45.000000	-44.999996	3510.557816	-3531.468538	26.920069	-179.995866	1439.555960	-165.585330	21.212148	10.921426	9.901068	-45.000000	-35.998335	45.000000	-44.997960	-2418.757982	-645.327342	21.098352	-33.672763	1809.369289	28.463983	5.436678	-22.773737	
6.4400	38.354891	10.879486	16.587984	-252.955870	830.902933	8.915973	15.046509	37.799537	37.579104	45.000000	-44.999992	3510.629506	-3531.403463	26.950092	-179.992596	1439.451009	-166.065056	21.171024	10.956936	9.942272	-45.000000	-36.026471	45.000000	-44.996348	-2418.811810	-645.343141	21.158792	-33.516347	1809.406896	28.202984	5.443414	-22.754114	
